<?xml version="1.0" encoding="UTF-8"?>
<!DOCTYPE svg PUBLIC "-//W3C//DTD SVG 1.1//EN" "http://www.w3.org/Graphics/SVG/1.1/DTD/svg11.dtd">
<!-- Creator: CorelDRAW 2021 (64-Bit) -->
<svg xmlns="http://www.w3.org/2000/svg" xml:space="preserve" width="1.24001in" height="0.313118in" version="1.1" style="shape-rendering:geometricPrecision; text-rendering:geometricPrecision; image-rendering:optimizeQuality; fill-rule:evenodd; clip-rule:evenodd"
viewBox="0 0 153.3 38.71"
 xmlns:xlink="http://www.w3.org/1999/xlink"
 xmlns:xodm="http://www.corel.com/coreldraw/odm/2003">
 <defs>
  <style type="text/css">
   <![CDATA[
    .fil1 {fill:black}
    .fil0 {fill:black;fill-rule:nonzero}
   ]]>
  </style>
 </defs>
 <g id="Layer_x0020_1">
  <metadata id="CorelCorpID_0Corel-Layer"/>
  <g id="_2282138802608">
   <path class="fil0" d="M17.69 38.71l0 -12.99 -0.12 0c-0.26,0.86 -0.67,1.52 -1.22,1.98 -0.55,0.46 -1.37,0.73 -2.47,0.81 -2.8,0.11 -5.33,0.11 -7.58,0 -1.99,-0.08 -3.49,-0.66 -4.52,-1.75 -1.02,-1.09 -1.58,-2.49 -1.69,-4.22 -0.13,-2.59 -0.13,-5.13 0,-7.62 0.08,-1.62 0.65,-3.04 1.73,-4.24 1.07,-1.2 2.6,-1.81 4.59,-1.81l16.84 0c0.05,2.96 0.08,7.38 0.08,13.27 0,5.92 -0.03,13.64 -0.08,16.57l-5.57 0zm-9.34 -14.41l7.03 0c0.76,0 1.34,-0.27 1.73,-0.81 0.39,-0.54 0.59,-1.25 0.59,-2.14l0 -8.28 -9.34 0c-1.73,0 -2.59,1.01 -2.59,3.02l0 5.18c0,2.02 0.86,3.02 2.59,3.02zm25.52 4.2c-1.99,-0.05 -3.49,-0.63 -4.51,-1.75 -1.02,-1.11 -1.58,-2.51 -1.69,-4.18 -0.16,-2.98 -0.16,-7.55 0,-13.7 6.12,-0.16 11.92,-0.16 17.39,0 2.02,0.05 3.55,0.64 4.61,1.77 1.06,1.13 1.62,2.53 1.67,4.2 0.1,2.59 0.1,5.13 0,7.62 -0.08,1.54 -0.64,2.93 -1.69,4.14 -1.05,1.22 -2.58,1.85 -4.59,1.9 -3.74,0.13 -7.47,0.13 -11.19,0zm1.96 -4.16l7.26 0c1.75,0 2.63,-1.01 2.63,-3.02l0 -5.22c0,-2.04 -0.88,-3.06 -2.63,-3.06l-9.85 0 0 8.28c0,2.02 0.86,3.02 2.59,3.02zm19.98 -18.45c-0.08,-0.94 -0.12,-1.92 -0.12,-2.94 0,-1.07 0.04,-2.05 0.12,-2.94l5.42 0c0.08,1.05 0.12,2.03 0.12,2.94 0,0.94 -0.04,1.92 -0.12,2.94l-5.42 0zm0.04 22.61c-0.08,-2.17 -0.12,-5.44 -0.12,-9.82 0,-4.37 0.04,-7.64 0.12,-9.82l5.46 0c0.05,2.17 0.08,5.44 0.08,9.82 0,4.37 -0.03,7.64 -0.08,9.82l-5.46 0zm10.17 0c-0.08,-2.17 -0.12,-5.44 -0.12,-9.82 0,-4.37 0.04,-7.64 0.12,-9.82l5.06 0 0.39 2.83 0.12 0c0.66,-1.81 2.03,-2.75 4.12,-2.83 2.98,-0.13 7.26,-0.13 12.84,0 0.13,5.55 0.12,12.09 -0.04,19.63l-5.54 0 0 -15.47 -8.95 0c-1.65,0 -2.47,0.96 -2.47,2.87l0 12.6 -5.54 0zm27.05 10.21c-0.08,-2.93 -0.12,-10.66 -0.12,-16.61 0,-5.89 0.04,-10.3 0.12,-13.23l5.06 0 0.43 2.83 0.12 0c0.5,-1.78 1.73,-2.72 3.69,-2.83 2.49,-0.13 7.09,-0.13 13.82,0 0.16,6.49 0.17,11.02 0.04,13.58 -0.1,1.57 -0.68,2.97 -1.73,4.2 -1.05,1.23 -2.57,1.85 -4.55,1.85l-11.35 0 0 10.21 -5.54 0zm5.54 -14.45l9.38 0c1.73,0 2.59,-1.01 2.59,-3.02l0 -8.21 -9.66 0c-1.54,0 -2.32,0.98 -2.32,2.94l0 8.28zm26.78 4.24c-2.93,-0.08 -4.61,-1.48 -5.03,-4.2 -0.05,-0.42 -0.08,-1.07 -0.08,-1.94 0,-0.88 0.03,-1.56 0.08,-2.06 0.31,-2.7 2.07,-4.04 5.26,-4.04l8.32 0c1.83,0 3.02,0.65 3.57,1.96l0.12 0 0 -2.47c0,-1.78 -0.89,-2.67 -2.67,-2.67l-6.56 0c-2.85,0 -4.99,-0.07 -6.4,-0.2l0 -4 14.68 0c1.96,0 3.47,0.46 4.53,1.39 1.06,0.93 1.66,2.28 1.79,4.06 0.13,2.8 0.14,7.53 0.04,14.17l-17.67 0zm1.85 -4.12l10.4 -0.04 0 -2.51c0,-1.28 -0.64,-1.92 -1.92,-1.92l-8.32 0c-1.13,0 -1.69,0.56 -1.69,1.69l0 1.02c0,1.15 0.51,1.74 1.53,1.77zm20.53 4.12c-0.08,-3.17 -0.12,-7.92 -0.12,-14.25 0,-6.33 0.04,-11.08 0.12,-14.25l5.46 0c0.05,3.17 0.08,7.92 0.08,14.25 0,6.33 -0.03,11.09 -0.08,14.25l-5.46 0z"/>
   <polygon class="fil1" points="25.2,38.71 25.2,34.5 25.2,34.5 25.2,34.5 27.73,33.04 30.26,31.58 30.26,34.5 86.03,34.5 86.03,31.58 88.56,33.04 91.09,34.5 91.09,34.5 91.09,34.5 91.09,38.71 "/>
  </g>
 </g>
</svg>
