<?xml version="1.0" encoding="UTF-8"?>
<!DOCTYPE svg PUBLIC "-//W3C//DTD SVG 1.1//EN" "http://www.w3.org/Graphics/SVG/1.1/DTD/svg11.dtd">
<!-- Creator: CorelDRAW 2021 (64-Bit) -->
<svg xmlns="http://www.w3.org/2000/svg" xml:space="preserve" width="1.24001in" height="0.313118in" version="1.1" style="shape-rendering:geometricPrecision; text-rendering:geometricPrecision; image-rendering:optimizeQuality; fill-rule:evenodd; clip-rule:evenodd"
viewBox="0 0 337.18 85.14"
 xmlns:xlink="http://www.w3.org/1999/xlink"
 xmlns:xodm="http://www.corel.com/coreldraw/odm/2003">
 <defs>
  <style type="text/css">
   <![CDATA[
    .fil1 {fill:white}
    .fil0 {fill:white;fill-rule:nonzero}
   ]]>
  </style>
 </defs>
 <g id="Layer_x0020_1">
  <metadata id="CorelCorpID_0Corel-Layer"/>
  <g id="_2282534264272">
   <path class="fil0" d="M38.9 85.14l0 -28.58 -0.26 0c-0.58,1.9 -1.47,3.35 -2.68,4.36 -1.21,1.01 -3.02,1.6 -5.44,1.77 -6.16,0.23 -11.72,0.23 -16.67,0 -4.38,-0.17 -7.69,-1.45 -9.93,-3.84 -2.24,-2.39 -3.48,-5.48 -3.71,-9.28 -0.29,-5.7 -0.29,-11.28 0,-16.75 0.17,-3.57 1.44,-6.68 3.8,-9.33 2.36,-2.65 5.73,-3.97 10.1,-3.97l37.05 0c0.12,6.51 0.17,16.23 0.17,29.19 0,13.01 -0.06,29.99 -0.17,36.44l-12.26 0zm-20.55 -31.69l15.46 0c1.67,0 2.94,-0.59 3.8,-1.77 0.86,-1.18 1.3,-2.75 1.3,-4.71l0 -18.22 -20.55 0c-3.8,0 -5.7,2.22 -5.7,6.65l0 11.4c0,4.43 1.9,6.65 5.7,6.65zm56.13 9.24c-4.37,-0.11 -7.69,-1.4 -9.93,-3.84 -2.25,-2.45 -3.48,-5.51 -3.71,-9.2 -0.35,-6.56 -0.35,-16.61 0,-30.14 13.47,-0.34 26.22,-0.34 38.26,0 4.43,0.11 7.82,1.41 10.15,3.89 2.33,2.48 3.55,5.55 3.67,9.24 0.23,5.7 0.23,11.28 0,16.75 -0.17,3.4 -1.41,6.43 -3.71,9.11 -2.3,2.68 -5.67,4.07 -10.1,4.19 -8.23,0.29 -16.44,0.29 -24.61,0zm4.32 -9.15l15.98 0c3.86,0 5.79,-2.22 5.79,-6.65l0 -11.49c0,-4.49 -1.93,-6.74 -5.79,-6.74l-21.68 0 0 18.22c0,4.43 1.9,6.65 5.7,6.65zm43.96 -40.59c-0.17,-2.07 -0.26,-4.23 -0.26,-6.48 0,-2.36 0.09,-4.52 0.26,-6.48l11.92 0c0.17,2.3 0.26,4.46 0.26,6.48 0,2.07 -0.09,4.23 -0.26,6.48l-11.92 0zm0.09 49.74c-0.17,-4.78 -0.26,-11.97 -0.26,-21.59 0,-9.61 0.09,-16.81 0.26,-21.59l12 0c0.11,4.78 0.17,11.98 0.17,21.59 0,9.62 -0.06,16.81 -0.17,21.59l-12 0zm22.37 0c-0.17,-4.78 -0.26,-11.97 -0.26,-21.59 0,-9.61 0.09,-16.81 0.26,-21.59l11.14 0 0.86 6.22 0.26 0c1.44,-3.97 4.46,-6.04 9.07,-6.22 6.56,-0.29 15.98,-0.29 28.24,0 0.29,12.21 0.26,26.6 -0.09,43.18l-12.18 0 0 -34.03 -19.69 0c-3.63,0 -5.44,2.1 -5.44,6.3l0 27.72 -12.18 0zm59.5 22.45c-0.17,-6.45 -0.26,-23.46 -0.26,-36.53 0,-12.95 0.09,-22.65 0.26,-29.1l11.14 0 0.95 6.22 0.26 0c1.09,-3.92 3.8,-5.99 8.12,-6.22 5.47,-0.29 15.6,-0.29 30.4,0 0.34,14.28 0.37,24.24 0.09,29.88 -0.23,3.45 -1.5,6.54 -3.8,9.24 -2.3,2.71 -5.64,4.06 -10.02,4.06l-24.96 0 0 22.45 -12.18 0zm12.18 -31.78l20.64 0c3.8,0 5.7,-2.22 5.7,-6.65l0 -18.05 -21.24 0c-3.4,0 -5.09,2.16 -5.09,6.48l0 18.22zm58.9 9.33c-6.45,-0.17 -10.13,-3.25 -11.05,-9.24 -0.12,-0.92 -0.17,-2.35 -0.17,-4.27 0,-1.93 0.06,-3.44 0.17,-4.53 0.69,-5.93 4.55,-8.9 11.57,-8.9l18.31 0c4.03,0 6.65,1.44 7.86,4.32l0.26 0 0 -5.44c0,-3.91 -1.96,-5.87 -5.87,-5.87l-14.42 0c-6.28,0 -10.97,-0.14 -14.08,-0.43l0 -8.81 32.3 0c4.32,0 7.64,1.02 9.97,3.07 2.33,2.04 3.64,5.02 3.93,8.94 0.29,6.16 0.32,16.55 0.09,31.18l-38.86 0zm4.06 -9.07l22.88 -0.09 0 -5.53c0,-2.82 -1.41,-4.23 -4.23,-4.23l-18.31 0c-2.48,0 -3.71,1.24 -3.71,3.71l0 2.24c0,2.53 1.12,3.83 3.37,3.89zm45.16 9.07c-0.17,-6.97 -0.26,-17.42 -0.26,-31.35 0,-13.93 0.09,-24.38 0.26,-31.35l12 0c0.12,6.97 0.17,17.41 0.17,31.35 0,13.93 -0.06,24.38 -0.17,31.35l-12 0z"/>
   <polygon class="fil1" points="55.42,85.14 55.42,75.88 55.42,75.88 55.42,75.88 60.99,72.67 66.55,69.45 66.55,75.88 189.22,75.88 189.22,69.45 194.79,72.67 200.35,75.88 200.35,75.88 200.35,75.88 200.35,85.14 "/>
  </g>
 </g>
</svg>
