<svg width="77" height="108" viewBox="0 0 77 108" fill="none" xmlns="http://www.w3.org/2000/svg">
<circle cx="38.5" cy="39" r="37.5" fill="#CCFB00" stroke="black" stroke-width="2"/>
<path d="M49.382 44.1643C49.1585 44.3879 48.8527 44.529 48.4997 44.529C47.8174 44.529 47.2528 43.9643 47.2528 43.282L47.2528 30.2475L34.2182 30.2475C33.5359 30.2475 32.9712 29.6828 32.9712 29.0005C32.9712 28.3182 33.5359 27.7535 34.2182 27.7535L48.4997 27.7535C49.1821 27.7535 49.7467 28.3182 49.7467 29.0005L49.7467 43.282C49.7467 43.635 49.6056 43.9408 49.382 44.1643Z" fill="black"/>
<path d="M49.1821 30.0829L29.3832 49.8818C28.9009 50.3641 28.101 50.3641 27.6186 49.8818C27.1363 49.3995 27.1363 48.5995 27.6186 48.1172L47.4175 28.3183C47.8998 27.836 48.6998 27.836 49.1821 28.3183C49.6644 28.8007 49.6644 29.6006 49.1821 30.0829Z" fill="black"/>
<path d="M10.016 103.5L14.64 92.3H16.624L21.2 103.5H19.376L18.08 100.22H13.072L11.76 103.5H10.016ZM13.616 98.828H17.536L15.584 93.9L13.616 98.828ZM23.9548 103.5V92.3H29.1388C29.8748 92.3 30.5148 92.444 31.0588 92.732C31.6028 93.0093 32.0294 93.3987 32.3388 93.9C32.6481 94.4013 32.8028 94.9827 32.8028 95.644C32.8028 96.3053 32.6481 96.8867 32.3388 97.388C32.0294 97.8893 31.5974 98.284 31.0428 98.572C30.4988 98.8493 29.8641 98.988 29.1388 98.988H25.6348V103.5H23.9548ZM25.6348 97.564H28.9628C29.6241 97.564 30.1468 97.3933 30.5308 97.052C30.9254 96.7 31.1228 96.236 31.1228 95.66C31.1228 95.084 30.9254 94.6253 30.5308 94.284C30.1468 93.9427 29.6241 93.772 28.9628 93.772H25.6348V97.564ZM36.1329 103.5V92.3H41.3169C42.0529 92.3 42.6929 92.444 43.2369 92.732C43.7809 93.0093 44.2075 93.3987 44.5169 93.9C44.8262 94.4013 44.9809 94.9827 44.9809 95.644C44.9809 96.3053 44.8262 96.8867 44.5169 97.388C44.2075 97.8893 43.7755 98.284 43.2209 98.572C42.6769 98.8493 42.0422 98.988 41.3169 98.988H37.8129V103.5H36.1329ZM37.8129 97.564H41.1409C41.8022 97.564 42.3249 97.3933 42.7089 97.052C43.1035 96.7 43.3009 96.236 43.3009 95.66C43.3009 95.084 43.1035 94.6253 42.7089 94.284C42.3249 93.9427 41.8022 93.772 41.1409 93.772H37.8129V97.564ZM48.311 103.5V92.3H49.991V102.012H56.439V103.5H48.311ZM60.7241 103.5V99.052L56.2121 92.3H58.1641L61.6041 97.564L65.0441 92.3H66.9161L62.4041 99.084V103.5H60.7241Z" fill="black"/>
</svg>
