<svg width="91" height="92" viewBox="0 0 91 92" fill="none" xmlns="http://www.w3.org/2000/svg">
<circle cx="45.5" cy="46" r="44" stroke="#DCF1FB" stroke-width="3"/>
<path d="M58.3607 52.1033C58.0966 52.3674 57.7351 52.5343 57.318 52.5343C56.5116 52.5343 55.8443 51.8669 55.8443 51.0606L55.8443 35.6561L40.4398 35.6561C39.6334 35.6561 38.9661 34.9887 38.9661 34.1824C38.9661 33.376 39.6334 32.7087 40.4398 32.7087L57.318 32.7087C58.1244 32.7087 58.7917 33.376 58.7917 34.1824L58.7917 51.0606C58.7917 51.4776 58.6249 51.8391 58.3607 52.1033Z" fill="#CCFB00"/>
<path d="M58.1242 35.4617L34.7256 58.8603C34.1556 59.4304 33.2102 59.4304 32.6401 58.8603C32.0701 58.2903 32.0701 57.3449 32.6401 56.7749L56.0388 33.3762C56.6088 32.8062 57.5542 32.8062 58.1243 33.3762C58.6943 33.9463 58.6943 34.8917 58.1242 35.4617Z" fill="#CCFB00"/>
</svg>
